<svg width="203" height="42" viewBox="0 0 203 42" fill="none" xmlns="http://www.w3.org/2000/svg">
<path d="M43.7537 41.3253V14.2756H48.5729V16.6074H49.2724C49.7129 15.8561 50.3995 15.1954 51.3323 14.6253C52.265 14.0294 53.5994 13.7314 55.3353 13.7314C56.8899 13.7314 58.3279 14.1201 59.6493 14.8974C60.9707 15.6488 62.033 16.7629 62.8362 18.2397C63.6394 19.7166 64.041 21.5044 64.041 23.6031V24.2249C64.041 26.3236 63.6394 28.1114 62.8362 29.5882C62.033 31.0651 60.9707 32.1922 59.6493 32.9694C58.3279 33.7208 56.8899 34.0965 55.3353 34.0965C54.1694 34.0965 53.1848 33.954 52.3816 33.669C51.6043 33.4099 50.9695 33.0731 50.4772 32.6585C50.0109 32.2181 49.6352 31.7776 49.3502 31.3371H48.6506V41.3253H43.7537ZM53.8585 29.8214C55.3871 29.8214 56.6438 29.3421 57.6283 28.3834C58.6388 27.3988 59.1441 25.9738 59.1441 24.1083V23.7197C59.1441 21.8542 58.6388 20.4421 57.6283 19.4834C56.6179 18.4988 55.3612 18.0066 53.8585 18.0066C52.3557 18.0066 51.0991 18.4988 50.0886 19.4834C49.0781 20.4421 48.5729 21.8542 48.5729 23.7197V24.1083C48.5729 25.9738 49.0781 27.3988 50.0886 28.3834C51.0991 29.3421 52.3557 29.8214 53.8585 29.8214Z" fill="white"/>
<path d="M73.1623 34.0965C71.7891 34.0965 70.5584 33.8633 69.4702 33.397C68.382 32.9047 67.514 32.2051 66.8663 31.2983C66.2444 30.3655 65.9335 29.2384 65.9335 27.917C65.9335 26.5956 66.2444 25.4945 66.8663 24.6135C67.514 23.7067 68.395 23.0331 69.5091 22.5926C70.6491 22.1262 71.9446 21.893 73.3955 21.893H78.6811V20.8048C78.6811 19.898 78.3961 19.1595 77.8261 18.5895C77.2561 17.9936 76.3492 17.6956 75.1056 17.6956C73.8878 17.6956 72.981 17.9807 72.3851 18.5507C71.7891 19.0948 71.4005 19.8073 71.2191 20.6882L66.7108 19.1725C67.0217 18.1879 67.514 17.294 68.1877 16.4908C68.8872 15.6617 69.807 15.001 70.9471 14.5087C72.113 13.9905 73.5251 13.7314 75.1833 13.7314C77.7225 13.7314 79.7305 14.3662 81.2073 15.6358C82.6842 16.9054 83.4226 18.745 83.4226 21.1546V28.3446C83.4226 29.1218 83.7853 29.5105 84.5108 29.5105H86.0654V33.5524H82.8008C81.8421 33.5524 81.0519 33.3192 80.43 32.8529C79.8082 32.3865 79.4973 31.7646 79.4973 30.9874V30.9485H78.7589C78.6552 31.2594 78.422 31.674 78.0593 32.1922C77.6966 32.6844 77.1265 33.1249 76.3492 33.5136C75.572 33.9022 74.5097 34.0965 73.1623 34.0965ZM74.0174 30.1323C75.3906 30.1323 76.5047 29.7566 77.3597 29.0053C78.2407 28.228 78.6811 27.2045 78.6811 25.9349V25.5463H73.7453C72.8385 25.5463 72.126 25.7406 71.6078 26.1293C71.0896 26.5179 70.8305 27.062 70.8305 27.7616C70.8305 28.4611 71.1025 29.0312 71.6466 29.4716C72.1907 29.9121 72.981 30.1323 74.0174 30.1323Z" fill="white"/>
<path d="M88.2855 33.5524V6.34717H93.1825V33.5524H88.2855Z" fill="white"/>
<path d="M104.633 33.5524C103.363 33.5524 102.327 33.1638 101.524 32.3865C100.747 31.5833 100.358 30.521 100.358 29.1996V18.3175H95.5387V14.2756H100.358V8.2904H105.255V14.2756H110.54V18.3175H105.255V28.3446C105.255 29.1218 105.618 29.5105 106.343 29.5105H110.074V33.5524H104.633Z" fill="white"/>
<path d="M119.598 34.0965C118.225 34.0965 116.994 33.8633 115.906 33.397C114.818 32.9047 113.95 32.2051 113.302 31.2983C112.68 30.3655 112.369 29.2384 112.369 27.917C112.369 26.5956 112.68 25.4945 113.302 24.6135C113.95 23.7067 114.831 23.0331 115.945 22.5926C117.085 22.1262 118.38 21.893 119.831 21.893H125.117V20.8048C125.117 19.898 124.832 19.1595 124.262 18.5895C123.692 17.9936 122.785 17.6956 121.541 17.6956C120.323 17.6956 119.417 17.9807 118.821 18.5507C118.225 19.0948 117.836 19.8073 117.655 20.6882L113.146 19.1725C113.457 18.1879 113.95 17.294 114.623 16.4908C115.323 15.6617 116.243 15.001 117.383 14.5087C118.549 13.9905 119.961 13.7314 121.619 13.7314C124.158 13.7314 126.166 14.3662 127.643 15.6358C129.12 16.9054 129.858 18.745 129.858 21.1546V28.3446C129.858 29.1218 130.221 29.5105 130.946 29.5105H132.501V33.5524H129.236C128.278 33.5524 127.488 33.3192 126.866 32.8529C126.244 32.3865 125.933 31.7646 125.933 30.9874V30.9485H125.194C125.091 31.2594 124.858 31.674 124.495 32.1922C124.132 32.6844 123.562 33.1249 122.785 33.5136C122.008 33.9022 120.945 34.0965 119.598 34.0965ZM120.453 30.1323C121.826 30.1323 122.94 29.7566 123.795 29.0053C124.676 28.228 125.117 27.2045 125.117 25.9349V25.5463H120.181C119.274 25.5463 118.562 25.7406 118.043 26.1293C117.525 26.5179 117.266 27.062 117.266 27.7616C117.266 28.4611 117.538 29.0312 118.082 29.4716C118.626 29.9121 119.417 30.1323 120.453 30.1323Z" fill="white"/>
<path d="M135.421 33.5524V6.34717H137.753V33.5524H135.421Z" fill="white"/>
<path d="M149.036 34.0965C147.715 34.0965 146.51 33.8763 145.422 33.4358C144.359 32.9694 143.517 32.2958 142.896 31.4149C142.274 30.5339 141.963 29.4716 141.963 28.228C141.963 26.9584 142.274 25.909 142.896 25.0799C143.517 24.2508 144.359 23.629 145.422 23.2144C146.484 22.7999 147.663 22.5926 148.958 22.5926H155.876V21.0769C155.876 19.5482 155.436 18.3563 154.555 17.5013C153.674 16.6463 152.391 16.2188 150.707 16.2188C149.049 16.2188 147.728 16.6333 146.743 17.4625C145.784 18.2657 145.137 19.3539 144.8 20.7271L142.546 20.0664C142.857 18.9523 143.349 17.9547 144.023 17.0738C144.696 16.167 145.59 15.4544 146.704 14.9363C147.818 14.3921 149.153 14.1201 150.707 14.1201C153.091 14.1201 154.931 14.7419 156.226 15.9856C157.547 17.2293 158.208 18.9652 158.208 21.1935V30.3655C158.208 31.1428 158.571 31.5315 159.296 31.5315H161.123V33.5524H158.636C157.832 33.5524 157.198 33.3192 156.731 32.8529C156.265 32.3606 156.032 31.6999 156.032 30.8708V30.5987H155.643C155.306 31.1687 154.866 31.7258 154.322 32.2699C153.804 32.814 153.117 33.2545 152.262 33.5913C151.407 33.9281 150.332 34.0965 149.036 34.0965ZM149.192 31.9978C151.187 31.9978 152.793 31.4019 154.011 30.2101C155.254 28.9923 155.876 27.2823 155.876 25.0799V24.6135H148.997C147.65 24.6135 146.523 24.9115 145.616 25.5074C144.735 26.0775 144.295 26.9713 144.295 28.1891C144.295 29.4069 144.748 30.3526 145.655 31.0262C146.588 31.674 147.767 31.9978 149.192 31.9978Z" fill="white"/>
<path d="M174.307 34.0965C172.234 34.0965 170.614 33.6949 169.449 32.8917C168.309 32.0626 167.466 31.1299 166.922 30.0935H166.456V33.5524H164.202V6.34717H166.534V17.9677H167C167.337 17.32 167.803 16.7111 168.399 16.1411C169.021 15.5451 169.811 15.0658 170.77 14.7031C171.755 14.3144 172.933 14.1201 174.307 14.1201C176.017 14.1201 177.558 14.5217 178.932 15.3249C180.305 16.1022 181.393 17.2293 182.196 18.7061C182.999 20.1571 183.401 21.8801 183.401 23.8751V24.3415C183.401 26.3365 182.986 28.0725 182.157 29.5494C181.354 31.0003 180.266 32.1274 178.893 32.9306C177.519 33.7079 175.991 34.0965 174.307 34.0965ZM173.763 31.9978C175.913 31.9978 177.649 31.3112 178.97 29.938C180.318 28.5648 180.991 26.6734 180.991 24.2638V23.9529C180.991 21.5432 180.318 19.6518 178.97 18.2786C177.649 16.9054 175.913 16.2188 173.763 16.2188C171.638 16.2188 169.902 16.9054 168.555 18.2786C167.207 19.6518 166.534 21.5432 166.534 23.9529V24.2638C166.534 26.6734 167.207 28.5648 168.555 29.938C169.902 31.3112 171.638 31.9978 173.763 31.9978Z" fill="white"/>
<path d="M195.468 34.0965C193.188 34.0965 191.232 33.5524 189.599 32.4642C187.993 31.376 187.008 29.5753 186.646 27.062L188.939 26.6345C189.146 28.0077 189.56 29.0959 190.182 29.8991C190.83 30.6764 191.607 31.2335 192.514 31.5703C193.447 31.9071 194.431 32.0756 195.468 32.0756C197.022 32.0756 198.266 31.7646 199.199 31.1428C200.157 30.4951 200.637 29.6141 200.637 28.5C200.637 27.36 200.183 26.5697 199.277 26.1293C198.396 25.6888 197.217 25.339 195.74 25.0799L193.952 24.769C192.76 24.5617 191.685 24.2508 190.726 23.8363C189.768 23.3958 189.003 22.8128 188.433 22.0873C187.889 21.3619 187.617 20.455 187.617 19.3668C187.617 17.7345 188.252 16.452 189.522 15.5192C190.817 14.5865 192.527 14.1201 194.652 14.1201C196.802 14.1201 198.525 14.6124 199.821 15.597C201.142 16.5556 201.971 17.9547 202.308 19.7943L200.132 20.2607C199.872 18.7579 199.251 17.6956 198.266 17.0738C197.307 16.452 196.103 16.1411 194.652 16.1411C193.227 16.1411 192.087 16.4131 191.232 16.9572C190.377 17.5013 189.949 18.3045 189.949 19.3668C189.949 20.4032 190.338 21.1676 191.115 21.6598C191.892 22.1262 192.955 22.476 194.302 22.7092L196.09 23.0201C197.385 23.2274 198.551 23.5383 199.587 23.9529C200.624 24.3415 201.44 24.8986 202.036 25.624C202.658 26.3495 202.969 27.3082 202.969 28.5C202.969 30.2878 202.295 31.674 200.948 32.6585C199.6 33.6172 197.774 34.0965 195.468 34.0965Z" fill="white"/>
<path d="M30.71 22.652L23.1961 4.93383C21.9935 2.09448 19.1547 0.674805 16.3173 0.674805C13.4799 0.674805 10.6411 2.09594 9.437 4.93529L1.92308 22.652C1.23211 24.2809 0.911621 25.9318 0.911621 27.5418C0.911621 34.7865 7.42878 41.216 16.1614 41.216H16.4731C25.2058 41.216 31.723 34.788 31.723 27.5418C31.723 25.9318 31.4025 24.2809 30.7115 22.652H30.71Z" fill="#5557F5"/>
<path d="M26.7751 22.6523L20.0236 4.93469C18.9422 2.09525 16.3921 0.674805 13.8421 0.674805C11.292 0.674805 8.74189 2.09525 7.66048 4.93469L0.90897 22.6523C0.287889 24.2817 0 25.9316 0 27.542C0 34.7875 5.85569 41.216 13.7018 41.216H13.9824C21.8284 41.216 27.6841 34.7875 27.6841 27.542C27.6841 25.9316 27.3962 24.2817 26.7751 22.6523Z" fill="#AFF26E"/>
<path d="M13.6713 33.4837C13.3701 29.6752 10.2878 26.6176 6.37988 26.1923C10.2878 25.7697 13.3673 22.7121 13.6713 18.9036C13.9726 22.7121 17.0548 25.7697 20.9628 26.195C17.0548 26.6176 13.9754 29.6752 13.6713 33.4864V33.4837Z" fill="#5557F5"/>
</svg>